<?xml version="1.0" standalone="no"?><!-- Generator: Gravit.io --><svg xmlns="http://www.w3.org/2000/svg" xmlns:xlink="http://www.w3.org/1999/xlink" style="isolation:isolate" viewBox="0 0 458 199" width="458" height="199"><defs><clipPath id="_clipPath_m35QuLZaFuZeqn6TWfTxXv6anMCjY497"><rect width="458" height="199"/></clipPath></defs><g clip-path="url(#_clipPath_m35QuLZaFuZeqn6TWfTxXv6anMCjY497)"><path d=" M 8.254 92.272 L 8.254 6.624 L 52.375 6.624 Q 64.645 6.624 71.119 8.728 C 75.383 10.082 79.068 12.829 81.583 16.529 C 84.322 20.624 85.717 25.471 85.573 30.395 C 85.697 34.689 84.663 38.937 82.58 42.695 C 80.545 46.151 77.67 49.037 74.221 51.084 C 71.313 52.682 68.178 53.826 64.924 54.475 C 67.36 55.188 69.679 56.254 71.807 57.638 C 73.384 58.974 74.806 60.483 76.046 62.137 C 77.45 63.79 78.693 65.574 79.757 67.463 L 92.506 92.272 L 62.58 92.272 L 48.445 66.107 C 46.659 62.705 45.053 60.511 43.656 59.503 C 41.76 58.178 39.496 57.48 37.182 57.508 L 34.848 57.508 L 34.848 92.272 L 8.254 92.272 Z  M 34.848 41.328 L 46.001 41.328 C 48.359 41.147 50.696 40.753 52.983 40.151 C 54.697 39.827 56.227 38.873 57.273 37.477 C 58.38 36.053 58.968 34.294 58.939 32.49 C 59.09 30.075 58.123 27.724 56.315 26.116 C 54.599 24.669 51.297 23.941 46.449 23.941 L 34.848 23.941 L 34.848 41.328 Z " fill="rgb(255,255,255)"/><path d=" M 98.93 49.508 Q 98.93 28.559 110.611 16.848 Q 122.292 5.137 143.21 5.167 Q 164.598 5.167 176.129 16.649 Q 187.661 28.131 187.691 48.799 Q 187.691 63.822 182.643 73.429 C 179.367 79.754 174.284 84.963 168.039 88.392 Q 158.453 93.768 144.208 93.768 C 134.552 93.768 126.552 92.242 120.267 89.14 C 113.769 85.926 108.388 80.83 104.825 74.516 Q 98.93 64.521 98.93 49.508 Z  M 125.394 49.637 C 125.394 58.266 127.001 64.491 130.213 68.261 C 133.425 72.032 137.814 73.927 143.33 73.927 Q 151.859 73.927 156.538 68.381 Q 161.216 62.835 161.216 48.43 C 161.216 40.35 159.59 34.465 156.338 30.754 C 153.086 27.043 148.667 25.178 143.111 25.178 C 138.175 24.995 133.43 27.092 130.243 30.864 Q 125.394 36.53 125.394 49.637 Z " fill="rgb(255,255,255)"/><path d=" M 188.489 6.624 L 217.886 6.624 L 235.153 35.552 L 252.431 6.624 L 281.679 6.624 L 248.381 56.401 L 248.381 92.312 L 221.846 92.312 L 221.846 56.401 L 188.489 6.624 Z " fill="rgb(255,255,255)"/><path d=" M 334.907 78.137 L 304.871 78.137 L 300.692 92.272 L 273.678 92.272 L 305.869 6.624 L 334.737 6.624 L 366.918 92.272 L 339.196 92.272 L 334.907 78.137 Z  M 329.421 59.613 L 319.974 28.819 L 310.617 59.613 L 329.421 59.613 Z " fill="rgb(255,255,255)"/><path d=" M 380.205 6.624 L 406.66 6.624 L 406.66 71.174 L 447.978 71.174 L 447.978 92.272 L 380.205 92.272 L 380.205 6.624 Z " fill="rgb(255,255,255)"/><path d=" M 8.024 107.933 L 73.463 107.933 L 73.463 126.338 L 34.609 126.338 L 34.609 141.301 L 67.787 141.301 L 67.787 158.608 L 34.609 158.608 L 34.609 193.622 L 8.024 193.622 L 8.024 107.933 Z " fill="rgb(255,255,255)"/><path d=" M 102.072 107.933 L 128.577 107.933 L 128.577 193.592 L 102.072 193.592 L 102.072 107.933 Z " fill="rgb(255,255,255)"/><path d=" M 160.867 107.933 L 187.341 107.933 L 187.341 172.494 L 228.649 172.494 L 228.649 193.592 L 160.817 193.592 L 160.867 107.933 Z " fill="rgb(255,255,255)"/><path d=" M 253.688 107.933 L 288.492 107.933 L 301.919 160.055 L 315.246 107.933 L 350.03 107.933 L 350.03 193.592 L 328.353 193.592 L 328.353 128.273 L 311.654 193.592 L 292.033 193.592 L 275.374 128.273 L 275.374 193.592 L 253.688 193.592 L 253.688 107.933 Z " fill="rgb(255,255,255)"/><path d=" M 372.265 165.252 L 397.453 163.676 C 398.001 167.766 399.118 170.888 400.774 173.013 Q 404.874 178.22 412.466 178.22 C 416.246 178.22 419.159 177.342 421.204 175.566 C 423.104 174.08 424.23 171.814 424.266 169.402 C 424.229 167.072 423.158 164.879 421.344 163.416 Q 418.421 160.783 407.797 158.429 Q 390.38 154.508 382.968 148.024 C 378.094 143.937 375.342 137.855 375.487 131.495 C 375.498 127.049 376.828 122.706 379.307 119.016 C 382.144 114.864 386.151 111.649 390.819 109.779 Q 398.51 106.427 411.887 106.417 Q 428.286 106.417 436.925 112.542 Q 445.564 118.667 447.17 131.954 L 422.231 133.411 Q 421.234 127.635 418.062 125.001 Q 414.89 122.368 409.263 122.368 C 406.191 122.368 403.867 123.026 402.281 124.363 C 400.807 125.497 399.945 127.252 399.946 129.111 C 399.984 130.57 400.695 131.929 401.872 132.792 Q 403.747 134.478 410.75 135.954 Q 428.087 139.685 435.618 143.516 Q 443.15 147.346 446.591 153.012 C 448.879 156.838 450.06 161.224 450.003 165.681 C 450.039 171.097 448.459 176.4 445.464 180.913 C 442.356 185.61 437.922 189.276 432.725 191.447 Q 424.546 195.058 412.096 195.048 Q 390.23 195.048 381.841 186.629 Q 373.452 178.21 372.265 165.252 Z " fill="rgb(255,255,255)"/></g></svg>